<svg version="1.2" xmlns="http://www.w3.org/2000/svg" viewBox="0 0 501 509" width="501" height="509"><style>.a{fill:#fff}</style><path fill-rule="evenodd" class="a" d="m459.7 343.1c-22.9 14.5-51.1 15.7-73.4 3-24.8-14-39.1-42.4-39.1-78v-48.2q-2.4 3.4-5.2 8l-58.8 95.4c-19.9 32.2-38.8 34.7-51.2 31.1-12.3-3.6-27.1-15.9-27.1-53.9v-79.2l-106.9 171.7c37.5 42.5 91.9 69.2 152.4 69.2 12.8 0 25.6-1.2 38.2-3.6 12.6-2.4 24.9-6 36.8-10.7 11.9-4.8 23.3-10.6 34.1-17.5 10.8-6.9 20.9-14.8 30.2-23.6l0.4-0.3c2.2-2 4.7-3.6 7.5-4.6 2.8-1 5.8-1.4 8.7-1.3 3 0.2 5.9 0.9 8.5 2.2 2.7 1.2 5.1 3 7.1 5.2 2.1 2.2 3.6 4.9 4.7 7.7 1 2.8 1.5 5.9 1.4 8.9-0.1 3-0.8 6-2.1 8.8-1.2 2.7-3 5.2-5.2 7.3-11.4 10.8-23.7 20.4-36.9 28.8-13.2 8.5-27.2 15.6-41.7 21.4-14.6 5.8-29.6 10.2-45 13.2-15.4 2.9-31 4.4-46.7 4.4-138 0-250.4-114.1-250.4-254.3 0-140.2 112.4-254.2 250.4-254.2 137.7 0 249.8 113.4 250.5 253.1v1.2c1.5 38.9-13.4 71.3-41.2 88.8zm-24-39.2c13.6-8.6 20.8-26.3 19.7-48.5q0-0.3 0-0.6c0-0.2-0.1-0.4-0.1-0.6 0-114.6-91.9-208-204.9-208-112.9 0-204.9 93.3-204.9 208q0 12.8 1.5 25.4 1.6 12.6 4.6 25 3.1 12.3 7.6 24.2 4.5 11.9 10.4 23.2l118.6-190.4c14.3-21.9 29.1-23.1 38.9-20.2 14.9 4.4 22.7 18.8 23.3 42.9v104.9l53-85.8c8.5-13.8 31-50.5 61-41.8 17.8 5.2 28.3 24.2 28.3 51v55.5c0 18.6 5.6 31.9 15.7 37.6 7.9 4.5 18.4 3.8 27.2-1.8z"/></svg>