<svg version="1.2" xmlns="http://www.w3.org/2000/svg" viewBox="0 0 134 125" width="134" height="125"><style>.a{fill:#fff}</style><path class="a" d="m86.3 41.8h-38.7q-0.5 0-1.1 0.1-0.5 0.2-0.9 0.6-0.5 0.4-0.7 1-0.2 0.5-0.3 1.1v36.2q0.1 0.5 0.3 1.1 0.2 0.5 0.7 0.9 0.4 0.4 0.9 0.6 0.6 0.2 1.1 0.1h38.7q0.6 0.1 1.1-0.1 0.6-0.2 1-0.6 0.4-0.4 0.7-0.9 0.2-0.6 0.2-1.1v-36.2q0-0.6-0.2-1.1-0.3-0.6-0.7-1-0.4-0.4-1-0.6-0.5-0.1-1.1-0.1z"/><path class="a" d="m41.7 0h-38.7q-0.6 0-1.1 0.2-0.6 0.2-1 0.6-0.4 0.4-0.6 0.9-0.3 0.5-0.3 1.1v36.2q0 0.6 0.3 1.1 0.2 0.5 0.6 0.9 0.4 0.4 1 0.6 0.5 0.2 1.1 0.2h38.7q0.6 0 1.1-0.2 0.6-0.2 1-0.6 0.4-0.4 0.6-0.9 0.3-0.5 0.3-1.1v-36.2q0-0.6-0.3-1.1-0.2-0.5-0.6-0.9-0.4-0.4-1-0.6-0.5-0.2-1.1-0.2z"/><path class="a" d="m131 0h-38.7q-0.6 0-1.1 0.2-0.6 0.2-1 0.6-0.4 0.4-0.6 0.9-0.3 0.5-0.3 1.1v36.2q0 0.6 0.3 1.1 0.2 0.5 0.6 0.9 0.4 0.4 1 0.6 0.5 0.2 1.1 0.2h38.7q0.6 0 1.1-0.2 0.6-0.2 1-0.6 0.4-0.4 0.6-0.9 0.3-0.5 0.3-1.1v-36.2q0-0.6-0.3-1.1-0.2-0.5-0.6-0.9-0.4-0.4-1-0.6-0.5-0.2-1.1-0.2z"/><path class="a" d="m41.7 83.5h-38.7q-0.6 0-1.1 0.2-0.6 0.2-1 0.6-0.4 0.4-0.6 0.9-0.3 0.6-0.3 1.1v36.2q0 0.6 0.3 1.1 0.2 0.6 0.6 0.9 0.4 0.4 1 0.6 0.5 0.2 1.1 0.2h38.7q0.6 0 1.1-0.2 0.6-0.2 1-0.6 0.4-0.3 0.6-0.9 0.3-0.5 0.3-1.1v-36.2q0-0.5-0.3-1.1-0.2-0.5-0.6-0.9-0.4-0.4-1-0.6-0.5-0.2-1.1-0.2z"/><path class="a" d="m131 83.5h-38.7q-0.6 0-1.1 0.2-0.6 0.2-1 0.6-0.4 0.4-0.6 0.9-0.3 0.6-0.3 1.1v36.2q0 0.6 0.3 1.1 0.2 0.6 0.6 0.9 0.4 0.4 1 0.6 0.5 0.2 1.1 0.2h38.7q0.6 0 1.1-0.2 0.6-0.2 1-0.6 0.4-0.3 0.6-0.9 0.3-0.5 0.3-1.1v-36.2q0-0.5-0.3-1.1-0.2-0.5-0.6-0.9-0.4-0.4-1-0.6-0.5-0.2-1.1-0.2z"/></svg>